<svg width="15" height="20" viewBox="0 0 15 20" fill="none" xmlns="http://www.w3.org/2000/svg">
<path d="M8.00005 2.00599C9.30555 2.0041 10.56 2.5129 11.4954 3.42365C12.4307 4.3344 12.9728 5.57486 13.0057 6.87995C13.0386 8.18505 12.5598 9.45125 11.6715 10.408C10.7832 11.3647 9.55599 11.9361 8.25205 12H7.74805C6.4441 11.9361 5.21687 11.3647 4.3286 10.408C3.44034 9.45125 2.9615 8.18505 2.9944 6.87995C3.02731 5.57486 3.56936 4.3344 4.50472 3.42365C5.44007 2.5129 6.69454 2.0041 8.00005 2.00599ZM9.00005 13.936C10.749 13.6797 12.3363 12.7714 13.4434 11.3934C14.5505 10.0154 15.0955 8.26971 14.9689 6.50661C14.8423 4.74351 14.0536 3.09352 12.761 1.88779C11.4685 0.682065 9.76768 0.00982516 8.00005 0.00599281C6.22812 0.00280127 4.52092 0.671712 3.22281 1.8778C1.9247 3.08388 1.13228 4.73738 1.00541 6.50476C0.87853 8.27214 1.42664 10.0219 2.53916 11.401C3.65168 12.7801 5.24584 13.6861 7.00005 13.936V15H4.00005V17H7.00005V20H9.00005V17H12V15H9.00005V13.936Z" fill="#111111"/>
</svg>
