<svg width="20" height="20" viewBox="0 0 20 20" fill="none" xmlns="http://www.w3.org/2000/svg">
<path d="M14.5 0.25V1.75H17.1723L14.641 4.3045C13.7363 3.62123 12.6337 3.25108 11.5 3.25C10.0975 3.25 8.78801 3.805 7.79651 4.79725C7.30641 5.28144 6.91731 5.8581 6.65177 6.4938C6.38623 7.1295 6.24953 7.8116 6.2496 8.50053C6.24967 9.18947 6.38651 9.87153 6.65217 10.5072C6.91785 11.1428 7.30706 11.7194 7.79726 12.2035C8.44976 12.856 9.22676 13.3247 10.0938 13.5625C10.1793 13.4972 10.2753 13.429 10.3518 13.3525C10.6661 13.0328 10.892 12.6368 11.0073 12.2035C10.1906 12.103 9.43137 11.7315 8.85101 11.1483C8.14301 10.441 7.75001 9.502 7.75001 8.5C7.75001 7.498 8.14376 6.5605 8.85251 5.8525C9.55901 5.14225 10.498 4.75 11.5 4.75C12.502 4.75 13.4403 5.14375 14.1475 5.8525C14.4973 6.19889 14.7749 6.61127 14.9641 7.06573C15.1534 7.5202 15.2506 8.00771 15.25 8.5C15.25 9.14875 15.0663 9.7525 14.758 10.3045C14.83 10.6915 14.875 11.098 14.875 11.5C14.875 11.8745 14.8438 12.242 14.7813 12.6025C14.9313 12.4802 15.0648 12.3415 15.2035 12.2035C16.195 11.2105 16.75 9.9025 16.75 8.5C16.75 7.3525 16.372 6.262 15.6955 5.359L18.25 2.8285V5.5H19.75V0.25H14.5ZM9.90626 6.4375C9.82076 6.50275 9.72476 6.571 9.64826 6.6475C9.32426 6.973 9.11276 7.3675 8.99276 7.79725C9.81026 7.90225 10.5565 8.25925 11.149 8.85175C11.8578 9.559 12.2515 10.498 12.2515 11.4993C12.2515 12.5005 11.8578 13.4387 11.149 14.1467C10.441 14.8577 9.50201 15.25 8.50001 15.25C7.49801 15.25 6.55976 14.8563 5.85251 14.1475C5.50236 13.8014 5.22457 13.389 5.03529 12.9345C4.84601 12.48 4.74904 11.9924 4.75001 11.5C4.75001 10.8512 4.93376 10.2475 5.24201 9.6955C5.16756 9.30127 5.1284 8.90119 5.12501 8.5C5.12501 8.126 5.15626 7.7585 5.21876 7.3975C5.06876 7.51975 4.93601 7.6585 4.79651 7.79725C3.80651 8.788 3.25001 10.0975 3.25001 11.5C3.25001 12.6475 3.62801 13.738 4.30451 14.641L3.04001 15.9062L1.54001 14.4062L0.460007 15.4608L1.96001 16.9608L0.460007 18.4608L1.54001 19.5408L3.04001 18.0408L4.54001 19.5408L5.59376 18.4608L4.09376 16.9608L5.35976 15.6962C6.26358 16.3806 7.36635 16.7506 8.50001 16.75C9.90251 16.75 11.212 16.195 12.2035 15.2028C13.195 14.212 13.75 12.9025 13.75 11.5C13.75 10.0975 13.195 8.7895 12.2028 7.7965C11.5503 7.144 10.7733 6.67525 9.90626 6.4375Z" fill="#111111"/>
</svg>
