<svg width="33" height="34" viewBox="0 0 33 34" fill="none" xmlns="http://www.w3.org/2000/svg">
<path d="M2.10659 9.51666C3.49388 6.75589 5.62129 4.43509 8.25125 2.81344C10.8812 1.19178 13.9102 0.333117 16.9999 0.333328C21.4916 0.333328 25.2649 1.985 28.1499 4.67499L23.3716 9.455C21.6433 7.80333 19.4466 6.96166 16.9999 6.96166C12.6583 6.96166 8.98325 9.895 7.67492 13.8333C7.34159 14.8333 7.15159 15.9 7.15159 17C7.15159 18.1 7.34159 19.1667 7.67492 20.1667C8.98492 24.1067 12.6583 27.0383 16.9999 27.0383C19.2416 27.0383 21.1499 26.4467 22.6433 25.4467C23.509 24.8767 24.2501 24.137 24.8219 23.2725C25.3937 22.4079 25.7842 21.4364 25.9699 20.4167H16.9999V13.97H32.6966C32.8933 15.06 32.9999 16.1967 32.9999 17.3783C32.9999 22.455 31.1833 26.7283 28.0299 29.6283C25.2733 32.175 21.4999 33.6667 16.9999 33.6667C14.811 33.6675 12.6433 33.237 10.6208 32.3998C8.59834 31.5625 6.76067 30.3349 5.21285 28.7871C3.66504 27.2392 2.43741 25.4016 1.60014 23.3791C0.762875 21.3566 0.332377 19.1889 0.333253 17C0.333253 14.31 0.976587 11.7667 2.10659 9.51666Z" fill="#111111"/>
</svg>
