<svg width="32" height="32" viewBox="0 0 174 174" fill="black" xmlns="http://www.w3.org/2000/svg">
<path d="M52.336 31.6055C38.6063 34.6641 28.275 44.7914 24.7407 58.5891C22.5657 67.0172 24.3328 77.7563 29.2266 85.8445C32.2852 91.0102 84.0774 142.802 82.65 139.336C81.0188 135.326 79.5235 125.946 79.5235 119.693C79.5235 94.6805 92.8453 74.4938 111.605 71.0953L114.188 70.6195L110.721 74.0859C106.983 77.8242 103.313 84.757 101.613 91.35C100.118 97.3992 99.5742 106.983 100.594 111.809C101.545 116.498 105.216 126.422 105.963 126.422C106.235 126.422 114.867 117.926 125.13 107.527C139.676 92.8453 144.23 87.8156 145.929 84.6211C153.609 69.9398 151.23 52.6758 139.948 41.393C126.286 27.6633 104.944 27.1195 90.2625 40.0336L87.068 42.8883L83.4656 39.9656C81.4946 38.3344 78.7758 36.3633 77.4844 35.5477C70.9594 31.5375 60.1524 29.8383 52.336 31.6055Z" fill="#000000"/>
</svg>
