<svg width="34" height="34" viewBox="0 0 34 34" fill="none" xmlns="http://www.w3.org/2000/svg">
<path d="M8.49996 19.8333C7.72079 19.8333 7.05378 19.5559 6.49892 19.001C5.94406 18.4462 5.66663 17.7792 5.66663 17C5.66663 16.2208 5.94406 15.5538 6.49892 14.9989C7.05378 14.4441 7.72079 14.1667 8.49996 14.1667C9.27913 14.1667 9.94614 14.4441 10.501 14.9989C11.0559 15.5538 11.3333 16.2208 11.3333 17C11.3333 17.7792 11.0559 18.4462 10.501 19.001C9.94614 19.5559 9.27913 19.8333 8.49996 19.8333ZM17 19.8333C16.2208 19.8333 15.5538 19.5559 14.9989 19.001C14.4441 18.4462 14.1666 17.7792 14.1666 17C14.1666 16.2208 14.4441 15.5538 14.9989 14.9989C15.5538 14.4441 16.2208 14.1667 17 14.1667C17.7791 14.1667 18.4461 14.4441 19.001 14.9989C19.5559 15.5538 19.8333 16.2208 19.8333 17C19.8333 17.7792 19.5559 18.4462 19.001 19.001C18.4461 19.5559 17.7791 19.8333 17 19.8333ZM25.5 19.8333C24.7208 19.8333 24.0538 19.5559 23.4989 19.001C22.9441 18.4462 22.6666 17.7792 22.6666 17C22.6666 16.2208 22.9441 15.5538 23.4989 14.9989C24.0538 14.4441 24.7208 14.1667 25.5 14.1667C26.2791 14.1667 26.9461 14.4441 27.501 14.9989C28.0559 15.5538 28.3333 16.2208 28.3333 17C28.3333 17.7792 28.0559 18.4462 27.501 19.001C26.9461 19.5559 26.2791 19.8333 25.5 19.8333Z" fill="#1D1B20"/>
</svg>
