<svg width="22" height="22" viewBox="0 0 22 22" fill="none" xmlns="http://www.w3.org/2000/svg">
<path d="M11 7C12.93 7 14.5 8.57 14.5 10.5C14.5 12.43 12.93 14 11 14C9.07 14 7.5 12.43 7.5 10.5C7.5 8.57 9.07 7 11 7ZM15.53 7.38L19.5 3.42V6H21.5V0H15.5V2H18.08L14.11 5.97C13.23 5.36 12.16 5 11 5C9.84 5 8.77 5.36 7.89 5.97L7.24 5.32L8.65 3.91L7.24 2.49L5.82 3.9L3.92 2H6.5V0H0.5V6H2.5V3.42L4.41 5.32L2.99 6.74L4.4 8.15L5.81 6.74L6.46 7.39C5.86 8.27 5.5 9.34 5.5 10.5C5.49961 11.7855 5.94952 13.0305 6.77158 14.0188C7.59364 15.0071 8.73592 15.6763 10 15.91V18H8V20H10V22H12V20H14V18H12V15.91C12.9024 15.7434 13.7487 15.3537 14.462 14.7764C15.1752 14.199 15.7327 13.4524 16.0836 12.6045C16.4344 11.7566 16.5676 10.8344 16.4709 9.92188C16.3742 9.00936 16.0508 8.13553 15.53 7.38Z" fill="#111111"/>
</svg>
